<mxfile host="app.diagrams.net" modified="2023-11-16T07:27:04.539Z" agent="Mozilla/5.0 (Macintosh; Intel Mac OS X 10_15_7) AppleWebKit/537.36 (KHTML, like Gecko) Chrome/119.0.0.0 Safari/537.36" etag="Wb4B11neJyeOEMT7AXgg" version="22.1.2" type="github">
  <diagram id="C5RBs43oDa-KdzZeNtuy" name="Page-1">
    <mxGraphModel dx="1781" dy="501" grid="1" gridSize="10" guides="1" tooltips="1" connect="1" arrows="1" fold="1" page="1" pageScale="1" pageWidth="827" pageHeight="1169" math="0" shadow="0">
      <root>
        <mxCell id="WIyWlLk6GJQsqaUBKTNV-0" />
        <mxCell id="WIyWlLk6GJQsqaUBKTNV-1" parent="WIyWlLk6GJQsqaUBKTNV-0" />
        <mxCell id="WIyWlLk6GJQsqaUBKTNV-2" value="" style="rounded=0;html=1;jettySize=auto;orthogonalLoop=1;fontSize=11;endArrow=block;endFill=0;endSize=8;strokeWidth=1;shadow=0;labelBackgroundColor=none;edgeStyle=orthogonalEdgeStyle;" parent="WIyWlLk6GJQsqaUBKTNV-1" source="WIyWlLk6GJQsqaUBKTNV-3" target="WIyWlLk6GJQsqaUBKTNV-6" edge="1">
          <mxGeometry relative="1" as="geometry" />
        </mxCell>
        <mxCell id="WIyWlLk6GJQsqaUBKTNV-3" value="开始" style="rounded=1;whiteSpace=wrap;html=1;fontSize=12;glass=0;strokeWidth=1;shadow=0;" parent="WIyWlLk6GJQsqaUBKTNV-1" vertex="1">
          <mxGeometry x="160" y="80" width="120" height="40" as="geometry" />
        </mxCell>
        <mxCell id="WIyWlLk6GJQsqaUBKTNV-5" value="No" style="edgeStyle=orthogonalEdgeStyle;rounded=0;html=1;jettySize=auto;orthogonalLoop=1;fontSize=11;endArrow=block;endFill=0;endSize=8;strokeWidth=1;shadow=0;labelBackgroundColor=none;" parent="WIyWlLk6GJQsqaUBKTNV-1" source="WIyWlLk6GJQsqaUBKTNV-6" edge="1">
          <mxGeometry y="10" relative="1" as="geometry">
            <mxPoint as="offset" />
            <mxPoint x="320" y="210" as="targetPoint" />
          </mxGeometry>
        </mxCell>
        <mxCell id="WIyWlLk6GJQsqaUBKTNV-6" value="参数校验" style="rhombus;whiteSpace=wrap;html=1;shadow=0;fontFamily=Helvetica;fontSize=12;align=center;strokeWidth=1;spacing=6;spacingTop=-4;" parent="WIyWlLk6GJQsqaUBKTNV-1" vertex="1">
          <mxGeometry x="170" y="170" width="100" height="80" as="geometry" />
        </mxCell>
        <mxCell id="WIyWlLk6GJQsqaUBKTNV-12" value="获取所有体系下的学习记录" style="rounded=1;whiteSpace=wrap;html=1;fontSize=12;glass=0;strokeWidth=1;shadow=0;" parent="WIyWlLk6GJQsqaUBKTNV-1" vertex="1">
          <mxGeometry x="354" y="310" width="120" height="40" as="geometry" />
        </mxCell>
        <mxCell id="ZXqMxFh61B3hoKO00KTs-0" value="&lt;pre style=&quot;border-color: var(--border-color); background-color: rgb(43, 43, 43); color: rgb(169, 183, 198); font-family: &amp;quot;JetBrains Mono&amp;quot;, monospace; font-size: 9.8pt;&quot;&gt;ParamInvalid&lt;br&gt;&lt;/pre&gt;" style="rounded=1;whiteSpace=wrap;html=1;" vertex="1" parent="WIyWlLk6GJQsqaUBKTNV-1">
          <mxGeometry x="320" y="193.75" width="120" height="32.5" as="geometry" />
        </mxCell>
        <mxCell id="ZXqMxFh61B3hoKO00KTs-1" value="" style="endArrow=classic;html=1;rounded=0;exitX=0.5;exitY=1;exitDx=0;exitDy=0;entryX=0.5;entryY=0;entryDx=0;entryDy=0;" edge="1" parent="WIyWlLk6GJQsqaUBKTNV-1" source="WIyWlLk6GJQsqaUBKTNV-6" target="WIyWlLk6GJQsqaUBKTNV-12">
          <mxGeometry width="50" height="50" relative="1" as="geometry">
            <mxPoint x="390" y="320" as="sourcePoint" />
            <mxPoint x="420" y="280" as="targetPoint" />
            <Array as="points">
              <mxPoint x="220" y="280" />
              <mxPoint x="414" y="280" />
            </Array>
          </mxGeometry>
        </mxCell>
        <mxCell id="ZXqMxFh61B3hoKO00KTs-14" value="" style="edgeStyle=orthogonalEdgeStyle;rounded=0;orthogonalLoop=1;jettySize=auto;html=1;" edge="1" parent="WIyWlLk6GJQsqaUBKTNV-1" source="ZXqMxFh61B3hoKO00KTs-3" target="ZXqMxFh61B3hoKO00KTs-9">
          <mxGeometry relative="1" as="geometry" />
        </mxCell>
        <mxCell id="ZXqMxFh61B3hoKO00KTs-3" value="数学" style="rhombus;whiteSpace=wrap;html=1;" vertex="1" parent="WIyWlLk6GJQsqaUBKTNV-1">
          <mxGeometry x="30" y="300" width="80" height="60" as="geometry" />
        </mxCell>
        <mxCell id="ZXqMxFh61B3hoKO00KTs-4" value="" style="endArrow=classic;html=1;rounded=0;entryX=0.5;entryY=0;entryDx=0;entryDy=0;" edge="1" parent="WIyWlLk6GJQsqaUBKTNV-1" target="ZXqMxFh61B3hoKO00KTs-3">
          <mxGeometry width="50" height="50" relative="1" as="geometry">
            <mxPoint x="220" y="250" as="sourcePoint" />
            <mxPoint x="300" y="270" as="targetPoint" />
            <Array as="points">
              <mxPoint x="220" y="280" />
              <mxPoint x="130" y="280" />
              <mxPoint x="70" y="280" />
            </Array>
          </mxGeometry>
        </mxCell>
        <mxCell id="ZXqMxFh61B3hoKO00KTs-28" style="edgeStyle=orthogonalEdgeStyle;rounded=0;orthogonalLoop=1;jettySize=auto;html=1;exitX=0.5;exitY=1;exitDx=0;exitDy=0;entryX=0.5;entryY=0;entryDx=0;entryDy=0;" edge="1" parent="WIyWlLk6GJQsqaUBKTNV-1" source="ZXqMxFh61B3hoKO00KTs-7" target="ZXqMxFh61B3hoKO00KTs-22">
          <mxGeometry relative="1" as="geometry" />
        </mxCell>
        <mxCell id="ZXqMxFh61B3hoKO00KTs-29" style="edgeStyle=orthogonalEdgeStyle;rounded=0;orthogonalLoop=1;jettySize=auto;html=1;exitX=0.5;exitY=1;exitDx=0;exitDy=0;entryX=0.5;entryY=0;entryDx=0;entryDy=0;" edge="1" parent="WIyWlLk6GJQsqaUBKTNV-1" source="ZXqMxFh61B3hoKO00KTs-7" target="ZXqMxFh61B3hoKO00KTs-23">
          <mxGeometry relative="1" as="geometry" />
        </mxCell>
        <mxCell id="ZXqMxFh61B3hoKO00KTs-30" style="edgeStyle=orthogonalEdgeStyle;rounded=0;orthogonalLoop=1;jettySize=auto;html=1;exitX=0.5;exitY=1;exitDx=0;exitDy=0;entryX=0.5;entryY=0;entryDx=0;entryDy=0;" edge="1" parent="WIyWlLk6GJQsqaUBKTNV-1" source="ZXqMxFh61B3hoKO00KTs-7" target="ZXqMxFh61B3hoKO00KTs-24">
          <mxGeometry relative="1" as="geometry" />
        </mxCell>
        <mxCell id="ZXqMxFh61B3hoKO00KTs-7" value="英语" style="rhombus;whiteSpace=wrap;html=1;" vertex="1" parent="WIyWlLk6GJQsqaUBKTNV-1">
          <mxGeometry x="-320" y="370" width="80" height="60" as="geometry" />
        </mxCell>
        <mxCell id="ZXqMxFh61B3hoKO00KTs-8" value="获取精准学数据" style="rounded=1;whiteSpace=wrap;html=1;" vertex="1" parent="WIyWlLk6GJQsqaUBKTNV-1">
          <mxGeometry x="60" y="400" width="90" height="30" as="geometry" />
        </mxCell>
        <mxCell id="ZXqMxFh61B3hoKO00KTs-9" value="获取学科类数据" style="rounded=1;whiteSpace=wrap;html=1;" vertex="1" parent="WIyWlLk6GJQsqaUBKTNV-1">
          <mxGeometry x="-50" y="400" width="100" height="30" as="geometry" />
        </mxCell>
        <mxCell id="ZXqMxFh61B3hoKO00KTs-10" value="获取奥数数据" style="rounded=1;whiteSpace=wrap;html=1;" vertex="1" parent="WIyWlLk6GJQsqaUBKTNV-1">
          <mxGeometry x="160" y="400" width="80" height="30" as="geometry" />
        </mxCell>
        <mxCell id="ZXqMxFh61B3hoKO00KTs-11" value="" style="endArrow=classic;html=1;rounded=0;exitX=0.5;exitY=1;exitDx=0;exitDy=0;entryX=0.5;entryY=0;entryDx=0;entryDy=0;" edge="1" parent="WIyWlLk6GJQsqaUBKTNV-1" source="ZXqMxFh61B3hoKO00KTs-3" target="ZXqMxFh61B3hoKO00KTs-9">
          <mxGeometry width="50" height="50" relative="1" as="geometry">
            <mxPoint x="160" y="480" as="sourcePoint" />
            <mxPoint x="210" y="430" as="targetPoint" />
            <Array as="points">
              <mxPoint x="70" y="380" />
              <mxPoint y="380" />
            </Array>
          </mxGeometry>
        </mxCell>
        <mxCell id="ZXqMxFh61B3hoKO00KTs-12" value="" style="endArrow=classic;html=1;rounded=0;entryX=0.5;entryY=0;entryDx=0;entryDy=0;" edge="1" parent="WIyWlLk6GJQsqaUBKTNV-1" target="ZXqMxFh61B3hoKO00KTs-10">
          <mxGeometry width="50" height="50" relative="1" as="geometry">
            <mxPoint x="70" y="360" as="sourcePoint" />
            <mxPoint x="210" y="430" as="targetPoint" />
            <Array as="points">
              <mxPoint x="70" y="380" />
              <mxPoint x="200" y="380" />
            </Array>
          </mxGeometry>
        </mxCell>
        <mxCell id="ZXqMxFh61B3hoKO00KTs-13" value="" style="endArrow=classic;html=1;rounded=0;entryX=0.5;entryY=0;entryDx=0;entryDy=0;" edge="1" parent="WIyWlLk6GJQsqaUBKTNV-1" target="ZXqMxFh61B3hoKO00KTs-8">
          <mxGeometry width="50" height="50" relative="1" as="geometry">
            <mxPoint x="70" y="360" as="sourcePoint" />
            <mxPoint x="210" y="430" as="targetPoint" />
            <Array as="points">
              <mxPoint x="70" y="380" />
              <mxPoint x="105" y="380" />
            </Array>
          </mxGeometry>
        </mxCell>
        <mxCell id="ZXqMxFh61B3hoKO00KTs-15" value="ye s" style="edgeLabel;html=1;align=center;verticalAlign=middle;resizable=0;points=[];" vertex="1" connectable="0" parent="ZXqMxFh61B3hoKO00KTs-13">
          <mxGeometry x="-0.76" y="1" relative="1" as="geometry">
            <mxPoint as="offset" />
          </mxGeometry>
        </mxCell>
        <mxCell id="ZXqMxFh61B3hoKO00KTs-16" value="数据封装" style="rounded=0;whiteSpace=wrap;html=1;" vertex="1" parent="WIyWlLk6GJQsqaUBKTNV-1">
          <mxGeometry x="30" y="480" width="120" height="30" as="geometry" />
        </mxCell>
        <mxCell id="ZXqMxFh61B3hoKO00KTs-17" value="" style="endArrow=classic;html=1;rounded=0;exitX=0.5;exitY=1;exitDx=0;exitDy=0;entryX=0.5;entryY=0;entryDx=0;entryDy=0;" edge="1" parent="WIyWlLk6GJQsqaUBKTNV-1" source="ZXqMxFh61B3hoKO00KTs-9" target="ZXqMxFh61B3hoKO00KTs-16">
          <mxGeometry width="50" height="50" relative="1" as="geometry">
            <mxPoint x="160" y="440" as="sourcePoint" />
            <mxPoint x="210" y="390" as="targetPoint" />
            <Array as="points">
              <mxPoint y="460" />
              <mxPoint x="90" y="460" />
            </Array>
          </mxGeometry>
        </mxCell>
        <mxCell id="ZXqMxFh61B3hoKO00KTs-18" value="" style="endArrow=classic;html=1;rounded=0;exitX=0.5;exitY=1;exitDx=0;exitDy=0;" edge="1" parent="WIyWlLk6GJQsqaUBKTNV-1" source="ZXqMxFh61B3hoKO00KTs-8" target="ZXqMxFh61B3hoKO00KTs-16">
          <mxGeometry width="50" height="50" relative="1" as="geometry">
            <mxPoint x="160" y="440" as="sourcePoint" />
            <mxPoint x="210" y="390" as="targetPoint" />
            <Array as="points">
              <mxPoint x="105" y="460" />
              <mxPoint x="90" y="460" />
            </Array>
          </mxGeometry>
        </mxCell>
        <mxCell id="ZXqMxFh61B3hoKO00KTs-19" value="" style="endArrow=classic;html=1;rounded=0;exitX=0.5;exitY=1;exitDx=0;exitDy=0;entryX=0.5;entryY=0;entryDx=0;entryDy=0;" edge="1" parent="WIyWlLk6GJQsqaUBKTNV-1" source="ZXqMxFh61B3hoKO00KTs-10" target="ZXqMxFh61B3hoKO00KTs-16">
          <mxGeometry width="50" height="50" relative="1" as="geometry">
            <mxPoint x="160" y="440" as="sourcePoint" />
            <mxPoint x="210" y="390" as="targetPoint" />
            <Array as="points">
              <mxPoint x="200" y="460" />
              <mxPoint x="90" y="460" />
            </Array>
          </mxGeometry>
        </mxCell>
        <mxCell id="ZXqMxFh61B3hoKO00KTs-20" value="" style="endArrow=classic;html=1;rounded=0;exitX=0;exitY=0.5;exitDx=0;exitDy=0;entryX=0.5;entryY=0;entryDx=0;entryDy=0;" edge="1" parent="WIyWlLk6GJQsqaUBKTNV-1" source="ZXqMxFh61B3hoKO00KTs-3" target="ZXqMxFh61B3hoKO00KTs-7">
          <mxGeometry width="50" height="50" relative="1" as="geometry">
            <mxPoint x="160" y="440" as="sourcePoint" />
            <mxPoint x="210" y="390" as="targetPoint" />
            <Array as="points">
              <mxPoint x="-280" y="330" />
            </Array>
          </mxGeometry>
        </mxCell>
        <mxCell id="ZXqMxFh61B3hoKO00KTs-21" value="no" style="edgeLabel;html=1;align=center;verticalAlign=middle;resizable=0;points=[];" vertex="1" connectable="0" parent="ZXqMxFh61B3hoKO00KTs-20">
          <mxGeometry x="-0.05" relative="1" as="geometry">
            <mxPoint as="offset" />
          </mxGeometry>
        </mxCell>
        <mxCell id="ZXqMxFh61B3hoKO00KTs-22" value="获取学科类数据" style="rounded=1;whiteSpace=wrap;html=1;" vertex="1" parent="WIyWlLk6GJQsqaUBKTNV-1">
          <mxGeometry x="-470" y="470" width="100" height="30" as="geometry" />
        </mxCell>
        <mxCell id="ZXqMxFh61B3hoKO00KTs-23" value="获取精准学数据" style="rounded=1;whiteSpace=wrap;html=1;" vertex="1" parent="WIyWlLk6GJQsqaUBKTNV-1">
          <mxGeometry x="-350" y="470" width="90" height="30" as="geometry" />
        </mxCell>
        <mxCell id="ZXqMxFh61B3hoKO00KTs-24" value="获取英语提升数据" style="rounded=1;whiteSpace=wrap;html=1;" vertex="1" parent="WIyWlLk6GJQsqaUBKTNV-1">
          <mxGeometry x="-240" y="470" width="100" height="30" as="geometry" />
        </mxCell>
        <mxCell id="ZXqMxFh61B3hoKO00KTs-25" value="获取RAZ数据" style="rounded=1;whiteSpace=wrap;html=1;" vertex="1" parent="WIyWlLk6GJQsqaUBKTNV-1">
          <mxGeometry x="-120" y="470" width="90" height="30" as="geometry" />
        </mxCell>
        <mxCell id="ZXqMxFh61B3hoKO00KTs-31" value="" style="endArrow=classic;html=1;rounded=0;entryX=0.5;entryY=0;entryDx=0;entryDy=0;" edge="1" parent="WIyWlLk6GJQsqaUBKTNV-1" target="ZXqMxFh61B3hoKO00KTs-25">
          <mxGeometry width="50" height="50" relative="1" as="geometry">
            <mxPoint x="-280" y="430" as="sourcePoint" />
            <mxPoint x="-210" y="420" as="targetPoint" />
            <Array as="points">
              <mxPoint x="-280" y="450" />
              <mxPoint x="-75" y="450" />
            </Array>
          </mxGeometry>
        </mxCell>
        <mxCell id="ZXqMxFh61B3hoKO00KTs-48" value="ye s" style="edgeLabel;html=1;align=center;verticalAlign=middle;resizable=0;points=[];" vertex="1" connectable="0" parent="ZXqMxFh61B3hoKO00KTs-31">
          <mxGeometry x="-0.902" y="2" relative="1" as="geometry">
            <mxPoint as="offset" />
          </mxGeometry>
        </mxCell>
        <mxCell id="ZXqMxFh61B3hoKO00KTs-32" value="数据封装" style="rounded=0;whiteSpace=wrap;html=1;" vertex="1" parent="WIyWlLk6GJQsqaUBKTNV-1">
          <mxGeometry x="-340" y="540" width="120" height="30" as="geometry" />
        </mxCell>
        <mxCell id="ZXqMxFh61B3hoKO00KTs-33" value="" style="endArrow=classic;html=1;rounded=0;exitX=0.5;exitY=1;exitDx=0;exitDy=0;entryX=0.442;entryY=0.033;entryDx=0;entryDy=0;entryPerimeter=0;" edge="1" parent="WIyWlLk6GJQsqaUBKTNV-1" source="ZXqMxFh61B3hoKO00KTs-22" target="ZXqMxFh61B3hoKO00KTs-32">
          <mxGeometry width="50" height="50" relative="1" as="geometry">
            <mxPoint x="-260" y="470" as="sourcePoint" />
            <mxPoint x="-210" y="420" as="targetPoint" />
            <Array as="points">
              <mxPoint x="-420" y="520" />
              <mxPoint x="-287" y="520" />
            </Array>
          </mxGeometry>
        </mxCell>
        <mxCell id="ZXqMxFh61B3hoKO00KTs-34" style="edgeStyle=orthogonalEdgeStyle;rounded=0;orthogonalLoop=1;jettySize=auto;html=1;exitX=0.5;exitY=1;exitDx=0;exitDy=0;entryX=0.45;entryY=0.033;entryDx=0;entryDy=0;entryPerimeter=0;" edge="1" parent="WIyWlLk6GJQsqaUBKTNV-1" source="ZXqMxFh61B3hoKO00KTs-23" target="ZXqMxFh61B3hoKO00KTs-32">
          <mxGeometry relative="1" as="geometry" />
        </mxCell>
        <mxCell id="ZXqMxFh61B3hoKO00KTs-35" style="edgeStyle=orthogonalEdgeStyle;rounded=0;orthogonalLoop=1;jettySize=auto;html=1;exitX=0.5;exitY=1;exitDx=0;exitDy=0;entryX=0.45;entryY=0.033;entryDx=0;entryDy=0;entryPerimeter=0;" edge="1" parent="WIyWlLk6GJQsqaUBKTNV-1" source="ZXqMxFh61B3hoKO00KTs-24" target="ZXqMxFh61B3hoKO00KTs-32">
          <mxGeometry relative="1" as="geometry" />
        </mxCell>
        <mxCell id="ZXqMxFh61B3hoKO00KTs-36" style="edgeStyle=orthogonalEdgeStyle;rounded=0;orthogonalLoop=1;jettySize=auto;html=1;exitX=0.5;exitY=1;exitDx=0;exitDy=0;entryX=0.45;entryY=0.067;entryDx=0;entryDy=0;entryPerimeter=0;" edge="1" parent="WIyWlLk6GJQsqaUBKTNV-1" source="ZXqMxFh61B3hoKO00KTs-25" target="ZXqMxFh61B3hoKO00KTs-32">
          <mxGeometry relative="1" as="geometry" />
        </mxCell>
        <mxCell id="ZXqMxFh61B3hoKO00KTs-42" style="edgeStyle=orthogonalEdgeStyle;rounded=0;orthogonalLoop=1;jettySize=auto;html=1;exitX=0.5;exitY=1;exitDx=0;exitDy=0;entryX=0.5;entryY=0;entryDx=0;entryDy=0;" edge="1" parent="WIyWlLk6GJQsqaUBKTNV-1" source="ZXqMxFh61B3hoKO00KTs-37" target="ZXqMxFh61B3hoKO00KTs-40">
          <mxGeometry relative="1" as="geometry" />
        </mxCell>
        <mxCell id="ZXqMxFh61B3hoKO00KTs-44" style="edgeStyle=orthogonalEdgeStyle;rounded=0;orthogonalLoop=1;jettySize=auto;html=1;exitX=0.5;exitY=1;exitDx=0;exitDy=0;entryX=0.5;entryY=0;entryDx=0;entryDy=0;" edge="1" parent="WIyWlLk6GJQsqaUBKTNV-1" source="ZXqMxFh61B3hoKO00KTs-37" target="ZXqMxFh61B3hoKO00KTs-41">
          <mxGeometry relative="1" as="geometry" />
        </mxCell>
        <mxCell id="ZXqMxFh61B3hoKO00KTs-37" value="其他学科" style="rhombus;whiteSpace=wrap;html=1;" vertex="1" parent="WIyWlLk6GJQsqaUBKTNV-1">
          <mxGeometry x="-630" y="430" width="80" height="60" as="geometry" />
        </mxCell>
        <mxCell id="ZXqMxFh61B3hoKO00KTs-38" value="" style="endArrow=classic;html=1;rounded=0;exitX=0;exitY=0.5;exitDx=0;exitDy=0;entryX=0.5;entryY=0;entryDx=0;entryDy=0;" edge="1" parent="WIyWlLk6GJQsqaUBKTNV-1" source="ZXqMxFh61B3hoKO00KTs-7" target="ZXqMxFh61B3hoKO00KTs-37">
          <mxGeometry width="50" height="50" relative="1" as="geometry">
            <mxPoint x="-300" y="470" as="sourcePoint" />
            <mxPoint x="-250" y="420" as="targetPoint" />
            <Array as="points">
              <mxPoint x="-590" y="400" />
            </Array>
          </mxGeometry>
        </mxCell>
        <mxCell id="ZXqMxFh61B3hoKO00KTs-39" value="no" style="edgeLabel;html=1;align=center;verticalAlign=middle;resizable=0;points=[];" vertex="1" connectable="0" parent="ZXqMxFh61B3hoKO00KTs-38">
          <mxGeometry x="0.0222" relative="1" as="geometry">
            <mxPoint as="offset" />
          </mxGeometry>
        </mxCell>
        <mxCell id="ZXqMxFh61B3hoKO00KTs-46" style="edgeStyle=orthogonalEdgeStyle;rounded=0;orthogonalLoop=1;jettySize=auto;html=1;exitX=0.5;exitY=1;exitDx=0;exitDy=0;entryX=0.5;entryY=0;entryDx=0;entryDy=0;" edge="1" parent="WIyWlLk6GJQsqaUBKTNV-1" source="ZXqMxFh61B3hoKO00KTs-40" target="ZXqMxFh61B3hoKO00KTs-45">
          <mxGeometry relative="1" as="geometry" />
        </mxCell>
        <mxCell id="ZXqMxFh61B3hoKO00KTs-40" value="获取学科类数据" style="rounded=1;whiteSpace=wrap;html=1;" vertex="1" parent="WIyWlLk6GJQsqaUBKTNV-1">
          <mxGeometry x="-700" y="530" width="100" height="30" as="geometry" />
        </mxCell>
        <mxCell id="ZXqMxFh61B3hoKO00KTs-47" style="edgeStyle=orthogonalEdgeStyle;rounded=0;orthogonalLoop=1;jettySize=auto;html=1;exitX=0.5;exitY=1;exitDx=0;exitDy=0;" edge="1" parent="WIyWlLk6GJQsqaUBKTNV-1" source="ZXqMxFh61B3hoKO00KTs-41" target="ZXqMxFh61B3hoKO00KTs-45">
          <mxGeometry relative="1" as="geometry" />
        </mxCell>
        <mxCell id="ZXqMxFh61B3hoKO00KTs-41" value="获取精准学数据" style="rounded=1;whiteSpace=wrap;html=1;" vertex="1" parent="WIyWlLk6GJQsqaUBKTNV-1">
          <mxGeometry x="-560" y="530" width="90" height="30" as="geometry" />
        </mxCell>
        <mxCell id="ZXqMxFh61B3hoKO00KTs-45" value="数据封装" style="rounded=0;whiteSpace=wrap;html=1;" vertex="1" parent="WIyWlLk6GJQsqaUBKTNV-1">
          <mxGeometry x="-650" y="600" width="120" height="30" as="geometry" />
        </mxCell>
        <mxCell id="ZXqMxFh61B3hoKO00KTs-49" value="课程数据与学习记录整合，封装" style="rounded=0;whiteSpace=wrap;html=1;" vertex="1" parent="WIyWlLk6GJQsqaUBKTNV-1">
          <mxGeometry x="130" y="670" width="150" height="60" as="geometry" />
        </mxCell>
        <mxCell id="ZXqMxFh61B3hoKO00KTs-51" value="返回结束" style="rounded=1;whiteSpace=wrap;html=1;fontSize=12;glass=0;strokeWidth=1;shadow=0;" vertex="1" parent="WIyWlLk6GJQsqaUBKTNV-1">
          <mxGeometry x="150" y="820" width="120" height="40" as="geometry" />
        </mxCell>
        <mxCell id="ZXqMxFh61B3hoKO00KTs-52" value="" style="endArrow=classic;html=1;rounded=0;exitX=0.5;exitY=1;exitDx=0;exitDy=0;" edge="1" parent="WIyWlLk6GJQsqaUBKTNV-1" source="ZXqMxFh61B3hoKO00KTs-49">
          <mxGeometry width="50" height="50" relative="1" as="geometry">
            <mxPoint x="-120" y="750" as="sourcePoint" />
            <mxPoint x="205" y="820" as="targetPoint" />
          </mxGeometry>
        </mxCell>
        <mxCell id="ZXqMxFh61B3hoKO00KTs-53" value="" style="endArrow=classic;html=1;rounded=0;exitX=0.442;exitY=1.033;exitDx=0;exitDy=0;exitPerimeter=0;entryX=0.5;entryY=0;entryDx=0;entryDy=0;" edge="1" parent="WIyWlLk6GJQsqaUBKTNV-1" source="ZXqMxFh61B3hoKO00KTs-32" target="ZXqMxFh61B3hoKO00KTs-49">
          <mxGeometry width="50" height="50" relative="1" as="geometry">
            <mxPoint x="-290" y="580" as="sourcePoint" />
            <mxPoint x="210" y="660" as="targetPoint" />
            <Array as="points">
              <mxPoint x="-287" y="650" />
              <mxPoint x="205" y="650" />
            </Array>
          </mxGeometry>
        </mxCell>
        <mxCell id="ZXqMxFh61B3hoKO00KTs-54" value="" style="endArrow=classic;html=1;rounded=0;exitX=0.5;exitY=1;exitDx=0;exitDy=0;entryX=0.5;entryY=0;entryDx=0;entryDy=0;" edge="1" parent="WIyWlLk6GJQsqaUBKTNV-1" source="ZXqMxFh61B3hoKO00KTs-45" target="ZXqMxFh61B3hoKO00KTs-49">
          <mxGeometry width="50" height="50" relative="1" as="geometry">
            <mxPoint x="-490" y="720" as="sourcePoint" />
            <mxPoint x="-50" y="670" as="targetPoint" />
            <Array as="points">
              <mxPoint x="-590" y="650" />
              <mxPoint x="205" y="650" />
            </Array>
          </mxGeometry>
        </mxCell>
        <mxCell id="ZXqMxFh61B3hoKO00KTs-55" value="" style="endArrow=classic;html=1;rounded=0;exitX=0.5;exitY=1;exitDx=0;exitDy=0;entryX=0.5;entryY=0;entryDx=0;entryDy=0;" edge="1" parent="WIyWlLk6GJQsqaUBKTNV-1" source="ZXqMxFh61B3hoKO00KTs-16" target="ZXqMxFh61B3hoKO00KTs-49">
          <mxGeometry width="50" height="50" relative="1" as="geometry">
            <mxPoint x="-200" y="720" as="sourcePoint" />
            <mxPoint x="-150" y="670" as="targetPoint" />
            <Array as="points">
              <mxPoint x="90" y="650" />
              <mxPoint x="205" y="650" />
            </Array>
          </mxGeometry>
        </mxCell>
        <mxCell id="ZXqMxFh61B3hoKO00KTs-56" value="" style="endArrow=classic;html=1;rounded=0;exitX=0.5;exitY=1;exitDx=0;exitDy=0;entryX=0.5;entryY=0;entryDx=0;entryDy=0;" edge="1" parent="WIyWlLk6GJQsqaUBKTNV-1" source="WIyWlLk6GJQsqaUBKTNV-12" target="ZXqMxFh61B3hoKO00KTs-49">
          <mxGeometry width="50" height="50" relative="1" as="geometry">
            <mxPoint x="150" y="470" as="sourcePoint" />
            <mxPoint x="200" y="420" as="targetPoint" />
            <Array as="points">
              <mxPoint x="414" y="650" />
              <mxPoint x="205" y="650" />
            </Array>
          </mxGeometry>
        </mxCell>
      </root>
    </mxGraphModel>
  </diagram>
</mxfile>
